HIERARCHY
ROOT Hips
{
	OFFSET 0.000000 0.000000 0.000000
	CHANNELS 6 Xposition Yposition Zposition Zrotation Yrotation Xrotation 
	JOINT LHipJoint
	{
		OFFSET 0.000000 0.000000 0.000000
		CHANNELS 3 Zrotation Yrotation Xrotation
		JOINT LeftUpLeg
		{
			OFFSET 1.363060 -1.794630 0.839290
			CHANNELS 3 Zrotation Yrotation Xrotation
			JOINT LeftLeg
			{
				OFFSET 2.448110 -6.726130 0.000000
				CHANNELS 3 Zrotation Yrotation Xrotation
				JOINT LeftFoot
				{
					OFFSET 2.562200 -7.039590 0.000000
					CHANNELS 3 Zrotation Yrotation Xrotation
					JOINT LeftToeBase
					{
						OFFSET 0.157640 -0.433110 2.322550
						CHANNELS 3 Zrotation Yrotation Xrotation
						End Site
						{
							OFFSET 0.000000 0.000000 0.000000
						}
					}
				}
			}
		}
	}
	JOINT RHipJoint
	{
		OFFSET 0.000000 0.000000 0.000000
		CHANNELS 3 Zrotation Yrotation Xrotation
		JOINT RightUpLeg
		{
			OFFSET -1.305520 -1.794630 0.839290
			CHANNELS 3 Zrotation Yrotation Xrotation
			JOINT RightLeg
			{
				OFFSET -2.542530 -6.985550 0.000000
				CHANNELS 3 Zrotation Yrotation Xrotation
				JOINT RightFoot
				{
					OFFSET -2.568260 -7.056230 0.000000
					CHANNELS 3 Zrotation Yrotation Xrotation
					JOINT RightToeBase
					{
						OFFSET -0.164730 -0.452590 2.363150
						CHANNELS 3 Zrotation Yrotation Xrotation
						End Site
						{
							OFFSET 0.000000 0.000000 0.000000
						}
					}
				}
			}
		}
	}
	JOINT LowerBack
	{
		OFFSET 0.000000 0.000000 0.000000
		CHANNELS 3 Zrotation Yrotation Xrotation
		JOINT Spine
		{
			OFFSET 0.028270 2.035590 -0.193380
			CHANNELS 3 Zrotation Yrotation Xrotation
			JOINT Spine1
			{
				OFFSET 0.056720 2.048850 -0.042750
				CHANNELS 3 Zrotation Yrotation Xrotation
				JOINT Neck
				{
					OFFSET 0.000000 0.000000 0.000000
					CHANNELS 3 Zrotation Yrotation Xrotation
					JOINT Neck1
					{
						OFFSET -0.054170 1.746240 0.172020
						CHANNELS 3 Zrotation Yrotation Xrotation
						JOINT Head
						{
							OFFSET 0.104070 1.761360 -0.123970
							CHANNELS 3 Zrotation Yrotation Xrotation
							End Site
							{
								OFFSET 0.000000 0.000000 0.000000
							}
						}
					}
				}
				JOINT LeftShoulder
				{
					OFFSET 0.000000 0.000000 0.000000
					CHANNELS 3 Zrotation Yrotation Xrotation
					JOINT LeftArm
					{
						OFFSET 3.362410 1.200890 -0.311210
						CHANNELS 3 Zrotation Yrotation Xrotation
						JOINT LeftForeArm
						{
							OFFSET 4.983000 -0.000000 -0.000000
							CHANNELS 3 Zrotation Yrotation Xrotation
							JOINT LeftHand
							{
								OFFSET 3.483560 -0.000000 -0.000000
								CHANNELS 3 Zrotation Yrotation Xrotation
								JOINT LeftFingerBase
								{
									OFFSET 0.000000 0.000000 0.000000
									CHANNELS 3 Zrotation Yrotation Xrotation
									JOINT LeftHandIndex1
									{
										OFFSET 0.715260 -0.000000 -0.000000
										CHANNELS 3 Zrotation Yrotation Xrotation
										End Site
										{
											OFFSET 0.000000 0.000000 0.000000
										}
									}
								}
								JOINT LThumb
								{
									OFFSET 0.000000 0.000000 0.000000
									CHANNELS 3 Zrotation Yrotation Xrotation
									End Site
									{
										OFFSET 0.000000 0.000000 0.000000
									}
								}
							}
						}
					}
				}
				JOINT RightShoulder
				{
					OFFSET 0.000000 0.000000 0.000000
					CHANNELS 3 Zrotation Yrotation Xrotation
					JOINT RightArm
					{
						OFFSET -3.136600 1.374050 -0.404650
						CHANNELS 3 Zrotation Yrotation Xrotation
						JOINT RightForeArm
						{
							OFFSET -5.241900 -0.000000 -0.000000
							CHANNELS 3 Zrotation Yrotation Xrotation
							JOINT RightHand
							{
								OFFSET -3.444170 -0.000000 -0.000000
								CHANNELS 3 Zrotation Yrotation Xrotation
								JOINT RightFingerBase
								{
									OFFSET 0.000000 0.000000 0.000000
									CHANNELS 3 Zrotation Yrotation Xrotation
									JOINT RightHandIndex1
									{
										OFFSET -0.622530 -0.000000 -0.000000
										CHANNELS 3 Zrotation Yrotation Xrotation
										End Site
										{
											OFFSET 0.000000 0.000000 0.000000
										}
									}
								}
								JOINT RThumb
								{
									OFFSET 0.000000 0.000000 0.000000
									CHANNELS 3 Zrotation Yrotation Xrotation
									End Site
									{
										OFFSET 0.000000 0.000000 0.000000
									}
								}
							}
						}
					}
				}
			}
		}
	}
}
MOTION
Frames: 4
Frame Time: 0.008333
8.037166 17.725925 -19.298290 -0.726863 72.931232 4.739381 -0.062378 0.040094 0.412183 -3.188217 -1.234293 -23.783984 5.837745 16.088417 52.850319 5.100269 -34.385509 18.832407 0.004600 -0.437900 -1.203300 1.662050 -0.274099 0.371185 17.957253 13.675756 -19.380690 -0.749545 -11.959581 34.157953 -2.101830 5.481262 -2.896238 -0.254800 -3.247800 8.969300 3.222255 -2.226544 20.897276 6.225839 -1.753717 7.270148 2.343694 -0.217160 -6.274277 0.339051 -5.780080 -8.198548 1.420141 -8.451524 -1.540852 -1.578500 -4.500200 -0.108100 -1.367983 -5.621511 0.675646 -68.752269 9.120828 42.405697 37.607899 -44.671241 -18.524990 0.641489 -1.346135 10.265293 8.800554 5.577503 0.947900 -7.125000 0.000000 0.000000 -15.784200 36.449700 3.424600 1.996658 5.953362 2.339129 62.726652 -11.302056 40.956127 -21.257601 29.051909 -5.661670 0.536734 -0.360299 12.390839 -10.870744 -11.821360 2.328400 7.125000 0.000000 0.000000 13.916000 -41.354900 1.278800 
8.178841 17.734468 -19.257303 -0.659553 71.733861 4.861381 -0.086877 -0.043470 0.304223 -3.513955 -0.875108 -24.534675 5.670609 16.026275 52.178480 5.243026 -34.236602 18.080229 0.006900 -0.536100 -1.473100 1.710051 -0.321363 0.446799 18.018482 14.235164 -18.696438 -0.703303 -11.847111 33.944355 -2.221416 5.949299 -3.031787 -0.261100 -3.287400 9.080000 3.272052 -1.755681 20.989105 6.233143 -1.152577 7.242281 2.117191 0.089384 -6.404209 0.517099 -5.807095 -8.189613 1.083928 -8.482590 -1.358386 -1.707200 -4.508600 -0.088600 -1.374870 -5.544917 0.607656 -69.691191 10.546248 43.038528 35.797953 -43.654883 -17.147240 0.622934 -1.332655 10.189715 8.437810 5.287165 0.866700 -7.125000 0.000000 0.000000 -15.997000 36.136500 3.600800 2.005391 5.947774 2.381004 62.102727 -10.410393 41.248720 -21.764647 29.529828 -5.907900 0.545300 -0.383018 12.145560 -11.589355 -12.050572 2.523800 7.125000 0.000000 0.000000 13.333100 -41.622900 1.133100 
8.321025 17.746673 -19.215807 -0.602306 70.520329 4.996969 -0.123146 -0.127673 0.201721 -3.829194 -0.575393 -25.235869 5.420707 15.907953 51.264803 5.411189 -34.022623 17.374895 0.009900 -0.642600 -1.765900 1.762273 -0.371166 0.521101 18.062174 14.834980 -17.976735 -0.636994 -11.708855 33.648716 -2.325582 6.366194 -3.124905 -0.267000 -3.323800 9.181500 3.318935 -1.281495 21.076195 6.208822 -0.550435 7.199794 1.864938 0.394829 -6.544652 0.698274 -5.836421 -8.212608 0.775025 -8.513107 -1.135500 -1.832000 -4.515600 -0.052500 -1.379288 -5.462544 0.544493 -70.528677 12.019963 43.664627 34.144412 -42.673117 -15.924591 0.605982 -1.325367 10.126145 7.907987 5.097871 0.783600 -7.125000 0.000000 0.000000 -16.369800 35.917600 3.781400 2.012446 5.941728 2.421285 61.509703 -9.587671 41.531275 -22.401982 30.134597 -6.224556 0.560775 -0.401288 11.578168 -12.350354 -12.376036 2.757300 7.125000 0.000000 0.000000 12.730000 -41.994800 0.960900 
8.464125 17.762742 -19.173701 -0.571085 69.302007 5.128460 -0.170860 -0.212096 0.104378 -4.119830 -0.350926 -25.877172 5.095896 15.733736 50.125182 5.605269 -33.731151 16.704517 0.014400 -0.774600 -2.128900 1.819506 -0.424495 0.595238 18.093126 15.470497 -17.217477 -0.549641 -11.542889 33.267282 -2.414448 6.731236 -3.174137 -0.273500 -3.363900 9.293700 3.371896 -0.809811 21.148131 6.154517 0.046666 7.149904 1.584798 0.696537 -6.681570 0.867769 -5.868370 -8.263809 0.514242 -8.544361 -0.889287 -1.944300 -4.522600 -0.003000 -1.380085 -5.376331 0.486229 -71.260440 13.531740 44.285246 32.652084 -41.744281 -14.852720 0.591252 -1.323344 10.124604 7.249461 5.003829 0.700900 -7.125000 0.000000 0.000000 -16.870100 35.787400 3.961400 2.018152 5.934046 2.459019 60.946495 -8.821259 41.805622 -23.162383 30.854262 -6.612309 0.582794 -0.413788 10.718789 -13.135584 -12.791832 3.028500 7.125000 0.000000 0.000000 12.120900 -42.465900 0.770200 
